<svg width="70" height="52" viewBox="0 0 70 52" fill="none" xmlns="http://www.w3.org/2000/svg">
<path d="M8.10178 25.6199H5.15332C2.94418 25.6199 1.15332 23.8291 1.15332 21.6199V10.1216C1.15332 7.91251 2.94418 6.12164 5.15332 6.12164H8.15921C10.1308 6.12164 11.828 6.51199 13.2509 7.29268C14.6738 8.06703 15.7681 9.18094 16.5337 10.6344C17.3058 12.0879 17.6918 13.827 17.6918 15.8517C17.6918 17.8828 17.3058 19.6283 16.5337 21.0881C15.7681 22.5479 14.6674 23.6682 13.2318 24.4489C11.8025 25.2296 10.0925 25.6199 8.10178 25.6199ZM5.29751 19.4558C5.29751 20.9094 6.4759 22.0878 7.92951 22.0878V22.0878C9.15458 22.0878 10.185 21.872 11.0209 21.4404C11.8631 21.0024 12.4948 20.3265 12.9159 19.4125C13.3434 18.4921 13.5572 17.3052 13.5572 15.8517C13.5572 14.411 13.3434 13.2336 12.9159 12.3196C12.4948 11.4056 11.8663 10.7328 11.0305 10.3012C10.1946 9.86961 9.16415 9.6538 7.93908 9.6538V9.6538C6.48018 9.6538 5.29751 10.8365 5.29751 12.2954V19.4558Z" fill="#FFEEF0"/>
<path d="M1.70531 30.1482C0.944532 28.8103 1.91083 27.1492 3.44993 27.1492V27.1492C4.19095 27.1492 4.87167 27.5576 5.22054 28.2113L9.08966 35.4618C9.11746 35.5139 9.17172 35.5464 9.23079 35.5464V35.5464C9.28985 35.5464 9.34411 35.5139 9.37191 35.4618L13.241 28.2113C13.5899 27.5576 14.2706 27.1492 15.0116 27.1492V27.1492C16.5507 27.1492 17.517 28.8103 16.7563 30.1482L11.8166 38.8351C11.474 39.4377 11.2938 40.1191 11.2938 40.8123V44.5845C11.2938 45.7239 10.3702 46.6475 9.23079 46.6475V46.6475C8.09141 46.6475 7.16777 45.7239 7.16777 44.5845V40.8123C7.16777 40.1191 6.9876 39.4377 6.64493 38.8351L1.70531 30.1482Z" fill="#FFEEF0"/>
<ellipse rx="1.43852" ry="1.43571" transform="matrix(0.816082 0.577936 -0.582546 0.812798 24.2761 24.197)" fill="#FFEEF0"/>
<ellipse rx="1.43852" ry="1.43571" transform="matrix(0.816082 0.577936 -0.582546 0.812798 31.03 24.1759)" fill="#FFEEF0"/>
<path d="M30.8711 23.8342C31.3526 24.7369 32.496 25.093 33.2849 24.4357C34.3179 23.5751 35.1465 22.4863 35.6986 21.2464C36.5037 19.438 36.6739 17.4132 36.1818 15.4971C35.6898 13.581 34.564 11.885 32.9855 10.6815C31.4069 9.47802 29.4671 8.83697 27.4779 8.86134C25.4886 8.88571 23.5654 9.57409 22.0171 10.8159C20.4689 12.0577 19.3855 13.7808 18.9411 15.7083C18.4967 17.6358 18.7171 19.6559 19.5668 21.444C20.1497 22.6707 21.0056 23.7393 22.0604 24.5745C22.864 25.2109 23.9991 24.8248 24.4587 23.9092V23.9092C24.918 22.9944 24.5088 21.8997 23.8115 21.1506C23.4577 20.7705 23.1616 20.3366 22.936 19.8619C22.4433 18.825 22.3155 17.6535 22.5732 16.5357C22.8309 15.4179 23.4592 14.4187 24.357 13.6985C25.2549 12.9784 26.3702 12.5792 27.5238 12.5651C28.6774 12.5509 29.8023 12.9227 30.7177 13.6206C31.6332 14.3185 32.286 15.3021 32.5714 16.4132C32.8567 17.5244 32.758 18.6986 32.2911 19.7473C32.0788 20.2243 31.7958 20.6627 31.4546 21.0495C30.7743 21.8205 30.3886 22.9296 30.8711 23.8342V23.8342Z" fill="#FE836F"/>
<ellipse rx="2.85904" ry="2.85346" transform="matrix(0.816082 0.577936 -0.582546 0.812798 27.542 5.41975)" fill="#FFEEF0"/>
<path fill-rule="evenodd" clip-rule="evenodd" d="M29.1157 2.77359C30.0288 3.33884 30.5109 4.33155 30.4632 5.32873C29.7046 5.55265 28.8567 5.4649 28.1322 5.01635C27.9219 4.88619 27.7345 4.73336 27.5712 4.56304C27.5465 4.58966 27.5213 4.61592 27.4954 4.64182C26.7375 5.40041 25.6566 5.64621 24.6894 5.37771C24.639 4.5927 24.9142 3.79069 25.5157 3.18866C26.0191 2.68479 26.665 2.40716 27.3254 2.3562C27.9307 2.29756 28.5596 2.42928 29.1157 2.77359Z" fill="#FE836F"/>
<ellipse rx="0.285826" ry="0.285425" transform="matrix(0.974942 0.231131 -0.232847 0.970483 29.5813 6.22691)" fill="#FE836F"/>
<ellipse rx="0.285826" ry="0.285425" transform="matrix(0.974942 0.231131 -0.232847 0.970483 25.8489 6.43999)" fill="#FE836F"/>
<path d="M27.9566 5.74656C27.9261 5.75473 27.9077 5.78619 27.9199 5.81517C27.9504 5.88781 28.0007 5.95101 28.0657 5.99736C28.1462 6.05483 28.2442 6.08286 28.3432 6.07669C28.4421 6.07053 28.5359 6.03055 28.6086 5.96353C28.6672 5.90947 28.7092 5.84049 28.7304 5.76459C28.7388 5.73433 28.7167 5.70549 28.6854 5.70119V5.70119C28.6541 5.69688 28.6257 5.71894 28.6158 5.7488C28.5992 5.79875 28.5701 5.84405 28.5308 5.88024C28.4775 5.92943 28.4087 5.95877 28.336 5.9633C28.2634 5.96782 28.1915 5.94725 28.1323 5.90506C28.0888 5.87398 28.0542 5.83256 28.0314 5.78497C28.0179 5.75667 27.9871 5.73842 27.9566 5.74656V5.74656Z" fill="#FE836F"/>
<path d="M27.4185 7.15605C27.388 7.16421 27.3696 7.19567 27.3818 7.22466C27.4123 7.29729 27.4627 7.36049 27.5276 7.40684C27.6081 7.46431 27.7062 7.49234 27.8051 7.48618C27.904 7.48001 27.9978 7.44003 28.0705 7.37302C28.1291 7.31895 28.1711 7.24997 28.1923 7.17407C28.2007 7.14382 28.1786 7.11498 28.1473 7.11068V7.11068C28.116 7.10637 28.0876 7.12842 28.0777 7.15828C28.0611 7.20823 28.032 7.25353 27.9927 7.28972C27.9394 7.33891 27.8706 7.36826 27.798 7.37278C27.7253 7.37731 27.6534 7.35673 27.5943 7.31455C27.5507 7.28346 27.5161 7.24204 27.4933 7.19445C27.4798 7.16615 27.449 7.14791 27.4185 7.15605V7.15605Z" fill="#FE836F"/>
<path d="M26.5484 5.87217C26.5179 5.88034 26.4995 5.9118 26.5117 5.94078C26.5422 6.01342 26.5925 6.07662 26.6575 6.12297C26.738 6.18044 26.836 6.20847 26.935 6.2023C27.0339 6.19614 27.1277 6.15616 27.2004 6.08914C27.259 6.03508 27.301 5.9661 27.3222 5.8902C27.3306 5.85994 27.3085 5.8311 27.2772 5.8268V5.8268C27.2459 5.8225 27.2175 5.84455 27.2076 5.87441C27.191 5.92436 27.1619 5.96966 27.1226 6.00585C27.0693 6.05504 27.0005 6.08438 26.9278 6.08891C26.8552 6.09343 26.7833 6.07286 26.7241 6.03067C26.6806 5.99959 26.646 5.95817 26.6232 5.91058C26.6097 5.88228 26.5789 5.86403 26.5484 5.87217V5.87217Z" fill="#FE836F"/>
<ellipse rx="1.49997" ry="1.49107" transform="matrix(0.9984 0.0565505 -0.0572298 0.998361 23.5118 31.4118)" fill="#FFEEF0"/>
<ellipse rx="1.49997" ry="1.49107" transform="matrix(0.9984 0.0565505 -0.0572298 0.998361 30.0001 30.1136)" fill="#FFEEF0"/>
<path d="M23.5283 31.7919C22.8642 30.9625 21.6345 30.815 20.9555 31.6333C20.0607 32.7116 19.42 33.9859 19.0928 35.3627C18.617 37.3655 18.8322 39.4692 19.704 41.3357C20.5758 43.2023 22.0535 44.7233 23.8997 45.6545C25.7459 46.5856 27.8534 46.8729 29.8836 46.47C31.9138 46.0671 33.7488 44.9975 35.0938 43.4331C36.4388 41.8686 37.2157 39.9002 37.2996 37.844C37.3836 35.7878 36.7697 33.7632 35.5567 32.0956C34.7222 30.9483 33.6374 30.0157 32.3935 29.3615C31.4529 28.8668 30.3737 29.4759 30.0801 30.4976V30.4976C29.7855 31.5231 30.4141 32.569 31.2716 33.2032C31.7062 33.5246 32.0922 33.9119 32.414 34.3543C33.1174 35.3213 33.4733 36.4953 33.4246 37.6876C33.376 38.88 32.9255 40.0214 32.1456 40.9286C31.3656 41.8357 30.3016 42.4559 29.1243 42.6895C27.9471 42.9232 26.725 42.7566 25.6545 42.2167C24.5839 41.6767 23.7271 40.7947 23.2216 39.7124C22.716 38.63 22.5912 37.4102 22.8672 36.2488C22.9921 35.7229 23.196 35.2228 23.469 34.7639C24.017 33.8425 24.198 32.6283 23.5283 31.7919V31.7919Z" fill="#FFD3A9"/>
<ellipse rx="2.56406" ry="2.54884" transform="matrix(0.9984 0.0565505 -0.0572298 0.998361 28.3662 39.1476)" fill="#FFEEF0"/>
<path fill-rule="evenodd" clip-rule="evenodd" d="M29.3529 36.7506C30.2463 37.1075 30.8267 37.9079 30.9409 38.7943C30.3073 39.109 29.5464 39.1629 28.8376 38.8797C28.6319 38.7975 28.4428 38.6918 28.2722 38.567C28.2547 38.5942 28.2366 38.6211 28.218 38.6478C27.6685 39.4341 26.7536 39.8181 25.8586 39.7306C25.6914 39.0466 25.8083 38.2972 26.244 37.6736C26.6125 37.1462 27.1454 36.7998 27.7264 36.6553C28.2462 36.5149 28.8146 36.5356 29.3529 36.7506Z" fill="#FFD3A9"/>
<ellipse rx="1.28203" ry="1.27442" transform="matrix(0.9984 0.0565505 -0.0572298 0.998361 25.915 37.0941)" fill="#FFD3A9"/>
<ellipse rx="0.256406" ry="0.254884" transform="matrix(0.9984 0.0565505 -0.0572298 0.998361 30.2639 39.638)" fill="#FFD3A9"/>
<ellipse rx="0.256406" ry="0.254884" transform="matrix(0.9984 0.0565505 -0.0572298 0.998361 27.009 40.4111)" fill="#FFD3A9"/>
<path d="M28.7569 39.4696C28.7313 39.4816 28.72 39.5124 28.7354 39.536C28.7738 39.5952 28.8282 39.6429 28.8927 39.6735C28.9727 39.7115 29.0636 39.7208 29.1497 39.6999C29.2359 39.6789 29.3122 39.629 29.3656 39.5586C29.4086 39.5018 29.4347 39.4344 29.4413 39.3642C29.444 39.3362 29.4199 39.3143 29.3918 39.3154V39.3154C29.3635 39.3165 29.3419 39.3405 29.3378 39.3685C29.3311 39.415 29.3127 39.4594 29.2839 39.4974C29.2447 39.5491 29.1887 39.5857 29.1255 39.6011C29.0622 39.6165 28.9955 39.6096 28.9368 39.5817C28.8934 39.5612 28.8563 39.5301 28.8287 39.4916C28.8123 39.4689 28.7824 39.4577 28.7569 39.4696V39.4696Z" fill="#FFD3A9"/>
<path d="M28.505 40.7956C28.4793 40.8076 28.468 40.8384 28.4834 40.8621C28.5219 40.9212 28.5762 40.9689 28.6407 40.9996C28.7208 41.0376 28.8116 41.0469 28.8978 41.0259C28.984 41.005 29.0602 40.9551 29.1136 40.8846C29.1567 40.8278 29.1828 40.7605 29.1894 40.6903C29.192 40.6623 29.168 40.6403 29.1398 40.6414V40.6414C29.1115 40.6426 29.0899 40.6666 29.0859 40.6946C29.0791 40.7411 29.0607 40.7855 29.0319 40.8234C28.9927 40.8751 28.9368 40.9118 28.8735 40.9272C28.8102 40.9425 28.7436 40.9357 28.6848 40.9078C28.6414 40.8872 28.6043 40.8561 28.5767 40.8177C28.5604 40.7949 28.5305 40.7837 28.505 40.7956V40.7956Z" fill="#FFD3A9"/>
<path d="M27.5343 39.8011C27.5086 39.8131 27.4973 39.8438 27.5127 39.8675C27.5512 39.9266 27.6055 39.9744 27.67 40.005C27.7501 40.043 27.8409 40.0523 27.9271 40.0314C28.0133 40.0104 28.0895 39.9605 28.1429 39.8901C28.186 39.8332 28.2121 39.7659 28.2187 39.6957C28.2213 39.6677 28.1973 39.6458 28.1691 39.6469V39.6469C28.1408 39.648 28.1192 39.672 28.1152 39.7C28.1084 39.7465 28.09 39.7909 28.0612 39.8289C28.022 39.8806 27.9661 39.9172 27.9028 39.9326C27.8395 39.948 27.7729 39.9411 27.7141 39.9132C27.6707 39.8926 27.6336 39.8615 27.606 39.8231C27.5897 39.8004 27.5598 39.7892 27.5343 39.8011V39.8011Z" fill="#FFD3A9"/>
<path d="M50.1806 32.9466C50.1806 32.6891 50.3893 32.4804 50.6468 32.4804H51.9285C52.8938 32.4804 53.6764 33.2629 53.6764 34.2283V44.4964C53.6764 46.8687 53.2009 48.6135 52.2498 49.7309C50.9731 51.2436 49.0496 52 46.4791 52C45.1082 52 43.9558 51.8281 43.0219 51.4843C42.0879 51.1405 41.2997 50.6334 40.6571 49.9629V49.9629C39.6807 48.9574 40.6666 47.5391 42.0681 47.5391H42.1343C42.747 47.5391 43.3105 47.8407 43.8376 48.1532C44.0178 48.26 44.2128 48.3518 44.4228 48.4287C44.9626 48.635 45.6009 48.7381 46.3378 48.7381C47.2803 48.7381 48.0385 48.592 48.6126 48.2998C49.1867 48.0075 49.5894 47.6294 49.8207 47.1652C49.8311 47.1452 49.8412 47.1245 49.8511 47.1032C50.2205 46.3099 49.0507 45.7786 48.2399 46.108V46.108C47.563 46.3745 46.7962 46.5077 45.9393 46.5077C44.0629 46.5077 42.4778 45.8287 41.184 44.4706C39.8902 43.1126 39.2433 41.3936 39.2433 39.3135C39.2433 37.0874 39.9288 35.2996 41.2997 33.9502C42.5421 32.7296 44.0244 32.1194 45.7466 32.1194C46.552 32.1194 47.3102 32.2698 48.0214 32.5706C48.4655 32.7509 48.9095 33.0049 49.3536 33.3324C49.6827 33.5751 50.1806 33.3555 50.1806 32.9466V32.9466ZM46.5434 35.407C45.4381 35.407 44.5256 35.7809 43.8059 36.5287C43.0861 37.2679 42.7263 38.2005 42.7263 39.3264C42.7263 40.4954 43.0947 41.4537 43.8316 42.2015C44.5684 42.9493 45.4938 43.3232 46.6077 43.3232C47.6958 43.3232 48.5912 42.9579 49.2938 42.2273C50.0049 41.4967 50.3605 40.5383 50.3605 39.3522C50.3605 38.1833 50.0049 37.2335 49.2938 36.5029C48.5826 35.7723 47.6658 35.407 46.5434 35.407Z" fill="#FFEEF0"/>
<path d="M66.5039 32.9297C66.5039 32.6816 66.7051 32.4804 66.9533 32.4804H68.2519C69.2172 32.4804 69.9998 33.2629 69.9998 34.2283V44.7598C69.9998 45.7251 69.2172 46.5077 68.2518 46.5077H66.9486C66.703 46.5077 66.5039 46.3086 66.5039 46.063V46.063C66.5039 45.672 66.0267 45.4628 65.7135 45.6969C65.2888 46.0143 64.8626 46.2631 64.4347 46.4432C63.7493 46.7269 63.0039 46.8687 62.1984 46.8687C60.3906 46.8687 58.8269 46.1682 57.5074 44.7672C56.1879 43.3576 55.5281 41.6084 55.5281 39.5198C55.5281 37.3538 56.1665 35.5789 57.4431 34.1951C58.7198 32.8113 60.2706 32.1194 62.0956 32.1194C62.9353 32.1194 63.7236 32.2784 64.4604 32.5964C64.8851 32.7797 65.2913 33.0158 65.679 33.3048C66.0015 33.5451 66.5039 33.3319 66.5039 32.9297V32.9297ZM62.8154 35.3684C61.7272 35.3684 60.8233 35.7551 60.1035 36.5287C59.3838 37.2937 59.0239 38.2778 59.0239 39.4811C59.0239 40.6931 59.3881 41.6901 60.1164 42.4723C60.8532 43.2544 61.7572 43.6455 62.8282 43.6455C63.9335 43.6455 64.8503 43.263 65.5786 42.498C66.3069 41.7245 66.671 40.7145 66.671 39.4682C66.671 38.2477 66.3069 37.2593 65.5786 36.5029C64.8503 35.7465 63.9292 35.3684 62.8154 35.3684Z" fill="#FFEEF0"/>
</svg>
