<svg width="1081" height="709" viewBox="0 0 1081 709" fill="none" xmlns="http://www.w3.org/2000/svg">
<circle cx="510.787" cy="444.769" r="26" transform="rotate(-17.2106 510.787 444.769)" fill="#FFECE8"/>
<circle cx="994.272" cy="643.617" r="26" transform="rotate(-17.2106 994.272 643.617)" fill="#FFECE8"/>
<circle cx="675.824" cy="551.726" r="20" transform="rotate(-17.2106 675.824 551.726)" fill="#FE836F"/>
<path d="M490.898 433.3C488.058 431.593 484.361 432.506 482.762 435.408C472.535 453.963 466.085 474.384 463.81 495.489C461.32 518.584 463.889 541.944 471.338 563.946C478.787 585.949 490.937 606.065 506.944 622.898C522.952 639.731 542.433 652.876 564.033 661.421C585.633 669.966 608.835 673.704 632.026 672.378C655.217 671.051 677.841 664.691 698.326 653.739C718.811 642.787 736.666 627.505 750.649 608.957C763.428 592.007 772.693 572.7 777.928 552.17C778.747 548.959 776.675 545.764 773.435 545.066L731.261 535.982C728.022 535.284 724.847 537.351 723.965 540.545C720.456 553.254 714.577 565.206 706.618 575.762C697.454 587.918 685.753 597.933 672.327 605.111C658.902 612.288 644.075 616.457 628.877 617.326C613.678 618.195 598.473 615.745 584.317 610.145C570.161 604.545 557.394 595.93 546.903 584.899C536.412 573.867 528.449 560.683 523.567 546.264C518.686 531.845 517.002 516.535 518.634 501.399C520.051 488.255 523.939 475.515 530.074 463.845C531.616 460.912 530.714 457.233 527.874 455.526L490.898 433.3Z" fill="#FE836F"/>
<path d="M1010.91 656.247C1013.71 658.013 1017.42 657.179 1019.08 654.311C1029.7 635.976 1036.58 615.696 1039.3 594.645C1042.28 571.607 1040.21 548.198 1033.23 526.043C1026.24 503.888 1014.52 483.519 998.874 466.351C983.227 449.184 964.028 435.629 942.614 426.629C921.199 417.629 898.082 413.4 874.868 414.236C851.654 415.072 828.9 420.952 808.188 431.468C787.476 441.985 769.302 456.885 754.929 475.133C741.795 491.809 732.123 510.915 726.455 531.33C725.569 534.523 727.572 537.761 730.796 538.527L772.769 548.502C775.993 549.268 779.211 547.269 780.16 544.094C783.937 531.462 790.068 519.638 798.248 509.252C807.667 497.292 819.578 487.527 833.152 480.636C846.726 473.744 861.638 469.89 876.851 469.342C892.065 468.795 907.215 471.566 921.25 477.464C935.284 483.362 947.866 492.246 958.121 503.497C968.376 514.748 976.058 528.097 980.634 542.616C985.209 557.136 986.568 572.478 984.617 587.575C982.922 600.687 978.765 613.341 972.384 624.879C970.781 627.779 971.605 631.476 974.408 633.243L1010.91 656.247Z" fill="#FE836F"/>
<circle cx="669.694" cy="498.141" r="40" transform="rotate(-17.2106 669.694 498.141)" fill="#FFECE8"/>
<path fill-rule="evenodd" clip-rule="evenodd" d="M688.961 462.34C690.446 463.17 691.132 464.924 690.604 466.541C687.474 476.141 680.729 484.571 671.067 489.608C668 491.206 664.822 492.369 661.602 493.117C661.748 493.602 661.886 494.092 662.016 494.587C665.557 508.135 661.71 521.878 652.975 531.547C651.835 532.809 649.972 533.086 648.513 532.212C639.853 527.019 633.14 518.563 630.385 508.022C627.857 498.349 629.094 488.578 633.187 480.26C636.777 472.587 642.824 465.989 650.916 461.77C663.334 455.296 677.588 455.981 688.961 462.34Z" fill="#FE836F"/>
<circle cx="696.19" cy="482.902" r="4" transform="rotate(-41.2805 696.19 482.902)" fill="#FE836F"/>
<circle cx="668.512" cy="527.162" r="4" transform="rotate(-41.2805 668.512 527.162)" fill="#FE836F"/>
<circle cx="684.7" cy="580.383" r="20" transform="rotate(-17.2106 684.7 580.383)" fill="#FE836F"/>
<circle cx="705.403" cy="603.283" r="20" transform="rotate(-17.2106 705.403 603.283)" fill="#FE836F"/>
<path d="M677.573 497.516C677.421 497.929 677.632 498.394 678.062 498.49C679.142 498.732 680.273 498.672 681.329 498.308C682.637 497.857 683.75 496.967 684.478 495.79C685.205 494.612 685.504 493.22 685.322 491.847C685.175 490.74 684.723 489.701 684.024 488.844C683.746 488.502 683.236 488.521 682.934 488.843V488.843C682.633 489.164 682.656 489.665 682.917 490.02C683.357 490.615 683.641 491.315 683.74 492.057C683.873 493.064 683.654 494.086 683.12 494.951C682.586 495.815 681.769 496.468 680.809 496.799C680.101 497.043 679.348 497.101 678.619 496.974C678.185 496.899 677.726 497.102 677.573 497.516V497.516Z" fill="#FE836F"/>
<path d="M689.383 515.093C689.23 515.506 689.441 515.971 689.871 516.067C690.951 516.309 692.082 516.249 693.138 515.885C694.447 515.434 695.559 514.544 696.287 513.367C697.014 512.189 697.313 510.797 697.131 509.424C696.984 508.317 696.532 507.279 695.833 506.421C695.555 506.079 695.045 506.098 694.743 506.42V506.42C694.442 506.741 694.465 507.243 694.726 507.597C695.166 508.192 695.45 508.892 695.549 509.634C695.682 510.641 695.463 511.664 694.929 512.528C694.395 513.392 693.578 514.045 692.618 514.376C691.91 514.62 691.157 514.678 690.428 514.551C689.994 514.476 689.535 514.679 689.383 515.093V515.093Z" fill="#FE836F"/>
<path d="M667.646 514.585C667.494 514.999 667.705 515.463 668.135 515.56C669.215 515.802 670.346 515.741 671.402 515.377C672.71 514.926 673.823 514.037 674.55 512.859C675.278 511.682 675.576 510.289 675.395 508.917C675.248 507.81 674.796 506.771 674.097 505.914C673.818 505.572 673.309 505.591 673.007 505.912V505.912C672.705 506.233 672.728 506.735 672.99 507.09C673.429 507.685 673.714 508.385 673.812 509.127C673.946 510.134 673.727 511.156 673.193 512.02C672.659 512.884 671.842 513.537 670.882 513.869C670.174 514.112 669.421 514.17 668.692 514.044C668.258 513.968 667.799 514.172 667.646 514.585V514.585Z" fill="#FE836F"/>
<circle cx="577.539" cy="356.367" r="26" transform="rotate(-142.243 577.539 356.367)" fill="#FFECE8"/>
<circle cx="472.023" cy="311.329" r="26" transform="rotate(-142.243 472.023 311.329)" fill="#FFECE8"/>
<path d="M582.983 378.089C583.215 381.395 586.086 383.897 589.38 383.541C622.963 379.91 654.594 365.733 679.687 342.968C706.264 318.856 723.964 286.511 729.943 251.128C735.922 215.745 729.833 179.379 712.655 147.874C695.476 116.368 668.206 91.5523 635.224 77.4128C602.243 63.2732 565.466 60.6312 530.802 69.9112C496.138 79.1912 465.601 99.8544 444.095 128.581C422.59 157.307 411.365 192.429 412.225 228.303C413.038 262.175 424.578 294.86 445.103 321.688C447.116 324.319 450.908 324.673 453.463 322.562L486.72 295.082C489.275 292.971 489.619 289.199 487.658 286.528C474.982 269.265 467.867 248.488 467.351 226.982C466.788 203.471 474.144 180.453 488.238 161.627C502.332 142.801 522.345 129.259 545.062 123.177C567.78 117.095 591.882 118.827 613.497 128.093C635.112 137.36 652.984 153.624 664.242 174.271C675.5 194.919 679.49 218.751 675.572 241.94C671.653 265.129 660.054 286.327 642.636 302.129C626.703 316.583 606.749 325.755 585.506 328.476C582.219 328.898 579.724 331.748 579.956 335.054L582.983 378.089Z" fill="#FFD3A9"/>
<circle cx="586.394" cy="184.884" r="40" transform="rotate(-142.243 586.394 184.884)" fill="#FFECE8"/>
<path fill-rule="evenodd" clip-rule="evenodd" d="M552.394 207.162C544.643 195.5 543.815 181.253 548.935 169.27C549.603 167.706 551.275 166.839 552.938 167.192C562.816 169.289 571.912 175.104 577.943 184.178C579.563 186.616 580.881 189.167 581.905 191.786C582.207 192.557 583.079 192.945 583.852 192.652V192.652C596.95 187.697 611.022 190.068 621.561 197.731C622.937 198.731 623.41 200.554 622.695 202.097C618.448 211.258 610.75 218.828 600.559 222.683C591.208 226.221 581.361 226.025 572.657 222.835C564.647 220.077 557.446 214.763 552.394 207.162Z" fill="#FFD3A9"/>
<circle cx="599.649" cy="233.095" r="20" transform="rotate(-142.243 599.649 233.095)" fill="#FFD3A9"/>
<circle cx="566.349" cy="161.771" r="4" transform="rotate(-142.243 566.349 161.771)" fill="#FFD3A9"/>
<circle cx="615.065" cy="180.527" r="4" transform="rotate(-142.243 615.065 180.527)" fill="#FFD3A9"/>
<path d="M584.236 177.268C584.671 177.339 585.087 177.044 585.1 176.603C585.132 175.497 584.857 174.398 584.299 173.431C583.608 172.232 582.523 171.309 581.229 170.818C579.934 170.328 578.51 170.3 577.198 170.739C576.139 171.094 575.205 171.735 574.496 172.584C574.213 172.923 574.329 173.42 574.702 173.655V173.655C575.074 173.89 575.563 173.772 575.861 173.447C576.362 172.903 576.995 172.49 577.704 172.252C578.668 171.93 579.713 171.95 580.663 172.311C581.613 172.671 582.409 173.348 582.917 174.228C583.291 174.876 583.491 175.605 583.506 176.344C583.514 176.785 583.801 177.197 584.236 177.268V177.268Z" fill="#FFD3A9"/>
<path d="M599.246 162.332C599.681 162.403 600.097 162.107 600.11 161.667C600.142 160.561 599.868 159.462 599.31 158.494C598.618 157.295 597.533 156.372 596.239 155.882C594.945 155.391 593.52 155.363 592.208 155.803C591.149 156.157 590.215 156.798 589.506 157.648C589.224 157.986 589.339 158.483 589.712 158.718V158.718C590.085 158.953 590.573 158.835 590.871 158.511C591.372 157.967 592.005 157.554 592.714 157.316C593.678 156.994 594.723 157.014 595.673 157.374C596.623 157.734 597.42 158.412 597.927 159.292C598.301 159.94 598.502 160.669 598.516 161.408C598.524 161.849 598.811 162.261 599.246 162.332V162.332Z" fill="#FFD3A9"/>
<path d="M602.882 183.768C603.317 183.839 603.733 183.543 603.746 183.103C603.778 181.997 603.503 180.898 602.945 179.93C602.254 178.732 601.169 177.809 599.875 177.318C598.58 176.828 597.156 176.8 595.844 177.239C594.785 177.594 593.851 178.235 593.142 179.084C592.859 179.422 592.975 179.919 593.348 180.154V180.154C593.72 180.39 594.209 180.271 594.507 179.947C595.008 179.403 595.641 178.99 596.35 178.752C597.314 178.43 598.359 178.45 599.309 178.81C600.259 179.17 601.055 179.848 601.563 180.728C601.937 181.376 602.137 182.105 602.151 182.844C602.16 183.285 602.447 183.697 602.882 183.768V183.768Z" fill="#FFD3A9"/>
<circle cx="65.5211" cy="473.423" r="26" transform="rotate(105.573 65.5211 473.423)" fill="#FFD3A9"/>
<circle cx="107.336" cy="587.85" r="26" transform="rotate(105.573 107.336 587.85)" fill="#FFD3A9"/>
<path d="M93.6933 603.462C91.4686 605.918 91.6493 609.722 94.1869 611.853C120.054 633.576 152.181 646.591 185.98 648.941C221.778 651.431 257.374 641.815 287.048 621.637C316.722 601.46 338.752 571.893 349.598 537.687C360.444 503.48 359.477 466.621 346.851 433.031C334.225 399.442 310.674 371.071 279.982 352.478C249.29 333.886 213.239 326.15 177.621 330.515C142.003 334.879 108.886 351.091 83.5913 376.544C59.7087 400.577 44.1085 431.53 38.9551 464.914C38.4495 468.189 40.8193 471.17 44.1108 471.552L86.9642 476.532C90.2558 476.914 93.2167 474.551 93.7868 471.287C97.471 450.189 107.54 430.672 122.704 415.413C139.281 398.732 160.985 388.108 184.328 385.247C207.67 382.387 231.297 387.456 251.412 399.641C271.526 411.826 286.961 430.419 295.235 452.433C303.51 474.447 304.144 498.603 297.036 521.02C289.928 543.438 275.49 562.815 256.042 576.038C236.595 589.262 213.267 595.564 189.806 593.932C168.345 592.44 147.914 584.388 131.245 570.94C128.666 568.86 124.881 569.032 122.657 571.488L93.6933 603.462Z" fill="#FFECE8"/>
<circle cx="398.837" cy="420.983" r="40" transform="rotate(105.573 398.837 420.983)" fill="#FFD3A9"/>
<path fill-rule="evenodd" clip-rule="evenodd" d="M441.263 428.994C438.347 442.691 428.742 453.245 416.596 457.965C415.011 458.581 413.222 457.993 412.311 456.557C406.902 448.03 404.698 437.461 406.968 426.804C407.577 423.941 408.479 421.215 409.635 418.651C409.975 417.897 409.643 417.003 408.893 416.654V416.654C396.191 410.756 388.045 399.039 386.153 386.147C385.906 384.464 386.879 382.851 388.482 382.284C398.001 378.913 408.795 379.122 418.677 383.711C427.745 387.921 434.491 395.098 438.297 403.551C441.927 411.205 443.164 420.069 441.263 428.994Z" fill="#FFECE8"/>
<circle cx="397.868" cy="451.626" r="4" transform="rotate(83.5201 397.868 451.626)" fill="#FFECE8"/>
<circle cx="377.32" cy="403.639" r="4" transform="rotate(83.5201 377.32 403.639)" fill="#FFECE8"/>
<path d="M396.493 428C396.24 427.639 395.738 427.547 395.414 427.845C394.599 428.594 394.003 429.557 393.699 430.632C393.323 431.964 393.418 433.385 393.97 434.654C394.521 435.924 395.495 436.964 396.725 437.597C397.718 438.109 398.829 438.331 399.932 438.246C400.371 438.212 400.647 437.783 400.555 437.352V437.352C400.463 436.921 400.038 436.653 399.598 436.666C398.858 436.687 398.121 436.521 397.456 436.179C396.553 435.713 395.838 434.95 395.433 434.018C395.029 433.086 394.958 432.043 395.235 431.066C395.438 430.346 395.821 429.694 396.341 429.168C396.65 428.854 396.745 428.361 396.493 428V428Z" fill="#FFECE8"/>
<path d="M375.319 427.665C375.066 427.304 374.564 427.212 374.24 427.51C373.425 428.259 372.829 429.222 372.525 430.297C372.149 431.629 372.244 433.05 372.796 434.32C373.347 435.589 374.321 436.629 375.551 437.263C376.544 437.774 377.655 437.996 378.758 437.911C379.197 437.878 379.473 437.448 379.381 437.017V437.017C379.29 436.586 378.865 436.319 378.424 436.331C377.685 436.352 376.947 436.187 376.282 435.844C375.379 435.379 374.664 434.616 374.26 433.684C373.855 432.752 373.785 431.709 374.061 430.731C374.264 430.011 374.647 429.359 375.167 428.833C375.476 428.52 375.571 428.026 375.319 427.665V427.665Z" fill="#FFECE8"/>
<path d="M388.141 410.106C387.888 409.745 387.387 409.653 387.062 409.951C386.247 410.7 385.651 411.663 385.347 412.738C384.971 414.07 385.067 415.491 385.618 416.76C386.17 418.03 387.143 419.07 388.373 419.704C389.366 420.215 390.477 420.437 391.58 420.352C392.02 420.318 392.295 419.889 392.204 419.458V419.458C392.112 419.027 391.687 418.76 391.246 418.772C390.507 418.793 389.77 418.628 389.104 418.285C388.201 417.82 387.487 417.056 387.082 416.125C386.677 415.193 386.607 414.15 386.883 413.172C387.087 412.452 387.469 411.8 387.989 411.274C388.299 410.96 388.393 410.467 388.141 410.106V410.106Z" fill="#FFECE8"/>
</svg>
