<svg width="193" height="196" viewBox="0 0 193 196" fill="none" xmlns="http://www.w3.org/2000/svg">
<circle cx="65.0672" cy="153.177" r="9.88043" transform="rotate(38.9209 65.0672 153.177)" fill="#FFD3A9"/>
<circle cx="111.288" cy="155.82" r="9.88043" transform="rotate(38.9209 111.288 155.82)" fill="#FFD3A9"/>
<path d="M113.139 159.546C114.512 162.562 118.089 163.919 120.955 162.256C130.941 156.459 139.109 147.914 144.447 137.582C150.707 125.467 152.713 111.6 150.142 98.2077C147.571 84.8155 140.573 72.6764 130.272 63.7407C119.971 54.8049 106.965 49.5914 93.3438 48.9378C79.7228 48.2842 66.2774 52.2284 55.1681 60.1367C44.0588 68.045 35.9304 79.4583 32.089 92.5428C28.2476 105.627 28.9163 119.623 33.9875 132.282C38.312 143.077 45.6241 152.365 55.0091 159.091C57.7025 161.021 61.3928 160.013 63.0484 157.143L67.5225 149.386C69.1781 146.515 68.1572 142.879 65.5675 140.811C60.2077 136.532 56.015 130.918 53.4394 124.489C50.1159 116.193 49.6777 107.021 52.1952 98.4456C54.7127 89.8705 60.0398 82.3907 67.3204 77.2078C74.6011 72.025 83.4127 69.4401 92.3394 69.8685C101.266 70.2968 109.79 73.7136 116.541 79.5698C123.292 85.4259 127.878 93.3815 129.563 102.158C131.248 110.935 129.933 120.023 125.831 127.963C122.651 134.116 117.94 139.303 112.195 143.049C109.42 144.859 108.055 148.381 109.428 151.397L113.139 159.546Z" fill="#FFECE8"/>
<circle cx="96.9699" cy="28.9852" r="15.2007" transform="rotate(38.9209 96.9699 28.9852)" fill="#FFD3A9"/>
<path fill-rule="evenodd" clip-rule="evenodd" d="M106.154 15.3888C109.978 18.1035 112.169 22.2629 112.51 26.5993C112.644 28.2946 111.359 29.745 109.66 29.8174C106.407 29.9561 103.085 29.0552 100.225 27.0248C99.3175 26.3809 98.5023 25.6558 97.782 24.8663C97.5705 24.6345 97.2088 24.6158 96.9747 24.8247C93.4754 27.9473 88.9321 29.1549 84.6288 28.5205C82.9465 28.2725 81.8192 26.6962 82.1275 25.0238C82.7179 21.8221 84.337 18.7849 86.9541 16.4494C89.7869 13.9216 93.3038 12.6487 96.8237 12.5921C100.043 12.477 103.324 13.3802 106.154 15.3888Z" fill="#FFECE8"/>
<circle cx="107.515" cy="33.9385" r="1.52007" transform="rotate(16.8677 107.515 33.9385)" fill="#FFECE8"/>
<circle cx="87.6782" cy="33.8801" r="1.52007" transform="rotate(16.8677 87.6782 33.8801)" fill="#FFECE8"/>
<path d="M99.0645 30.8601C98.9005 30.8937 98.7929 31.055 98.848 31.2132C98.9865 31.6102 99.2328 31.9632 99.562 32.2311C99.97 32.563 100.48 32.7437 101.006 32.7425C101.532 32.7413 102.042 32.5582 102.448 32.2244C102.776 31.955 103.021 31.6008 103.157 31.2032C103.212 31.0448 103.103 30.884 102.939 30.8511C102.775 30.8181 102.618 30.9262 102.556 31.0818C102.452 31.3429 102.283 31.5752 102.063 31.7557C101.765 32.0007 101.391 32.1351 101.005 32.136C100.619 32.1369 100.244 32.0043 99.9448 31.7606C99.7242 31.5812 99.5543 31.3496 99.4491 31.089C99.3864 30.9337 99.2286 30.8264 99.0645 30.8601Z" fill="#FFECE8"/>
<path d="M95.7589 38.1967C95.5948 38.2304 95.4872 38.3917 95.5424 38.5498C95.6808 38.9469 95.9272 39.2999 96.2564 39.5677C96.6644 39.8997 97.1746 40.0804 97.7006 40.0791C98.2266 40.0779 98.736 39.8949 99.1425 39.561C99.4704 39.2917 99.7151 38.9375 99.8517 38.5398C99.9061 38.3815 99.7978 38.2207 99.6336 38.1877C99.4694 38.1548 99.3121 38.2628 99.2501 38.4184C99.1461 38.6796 98.9773 38.9119 98.7576 39.0924C98.4592 39.3374 98.0853 39.4718 97.6992 39.4727C97.3131 39.4736 96.9386 39.3409 96.6391 39.0973C96.4185 38.9178 96.2487 38.6863 96.1434 38.4256C96.0807 38.2703 95.9229 38.163 95.7589 38.1967Z" fill="#FFECE8"/>
<path d="M91.5641 31.0787C91.4 31.1124 91.2924 31.2737 91.3476 31.4318C91.486 31.8288 91.7323 32.1819 92.0615 32.4497C92.4696 32.7816 92.9798 32.9623 93.5058 32.9611C94.0318 32.9599 94.5412 32.7768 94.9477 32.443C95.2756 32.1736 95.5203 31.8195 95.6569 31.4218C95.7113 31.2634 95.603 31.1026 95.4388 31.0697C95.2746 31.0368 95.1173 31.1448 95.0553 31.3004C94.9513 31.5615 94.7825 31.7939 94.5627 31.9743C94.2644 32.2194 93.8905 32.3537 93.5044 32.3546C93.1183 32.3555 92.7438 32.2229 92.4443 31.9792C92.2237 31.7998 92.0538 31.5682 91.9486 31.3076C91.8859 31.1523 91.7281 31.045 91.5641 31.0787Z" fill="#FFECE8"/>
</svg>
