<svg width="222" height="198" viewBox="0 0 222 198" fill="none" xmlns="http://www.w3.org/2000/svg">
<circle cx="59.539" cy="26.8154" r="8.8498" transform="rotate(15 59.539 26.8154)" fill="#FFECE8"/>
<circle cx="162.701" cy="171.802" r="8.8498" transform="rotate(15 162.701 171.802)" fill="#FFECE8"/>
<circle cx="87.6623" cy="87.5611" r="6.80754" transform="rotate(15 87.6623 87.5611)" fill="#FE836F"/>
<path d="M57.6752 23.4371C56.1822 20.4788 52.5511 19.2641 49.7749 21.0733C44.8527 24.2811 40.4706 28.2717 36.8077 32.899C31.9005 39.0984 28.402 46.2921 26.5553 53.98C24.7085 61.6679 24.558 69.6657 26.114 77.4177C27.67 85.1696 30.8952 92.4898 35.5657 98.8696C40.2361 105.249 46.2396 110.536 53.1591 114.361C60.0786 118.187 67.7481 120.46 75.6347 121.022C83.5212 121.585 91.4357 120.423 98.8281 117.619C104.346 115.525 109.474 112.554 114.019 108.831C116.583 106.731 116.522 102.902 114.153 100.585L109.314 95.8522C106.945 93.5352 103.17 93.6263 100.489 95.5742C97.9349 97.43 95.1386 98.944 92.1701 100.07C87.3254 101.908 82.1386 102.67 76.97 102.301C71.8014 101.932 66.7751 100.443 62.2403 97.9355C57.7055 95.4283 53.771 91.9639 50.7102 87.7828C47.6494 83.6017 45.5356 78.8043 44.5159 73.724C43.4962 68.6436 43.5948 63.4021 44.8051 58.3637C46.0154 53.3254 48.3082 48.6109 51.5242 44.548C53.4947 42.0587 55.7828 39.8505 58.3237 37.9764C60.9905 36.0095 62.218 32.4384 60.725 29.4801L57.6752 23.4371Z" fill="#FE836F"/>
<path d="M163.492 174.886C164.922 177.876 168.527 179.167 171.34 177.417C176.67 174.102 181.4 169.883 185.309 164.935C190.462 158.413 194.054 150.799 195.81 142.675C197.565 134.551 197.438 126.133 195.438 118.065C193.438 109.998 189.618 102.495 184.27 96.1325C178.922 89.7696 172.19 84.7151 164.587 81.3561C156.984 77.9972 148.714 76.423 140.409 76.7541C132.104 77.0852 123.985 79.3128 116.673 83.2663C111.126 86.2659 106.156 90.1987 101.973 94.8782C99.7651 97.3488 100.417 101.122 103.115 103.045L108.627 106.974C111.326 108.897 115.041 108.224 117.389 105.885C119.811 103.472 122.575 101.412 125.601 99.776C130.393 97.1851 135.714 95.7252 141.156 95.5082C146.599 95.2912 152.019 96.3229 157.002 98.5242C161.984 100.726 166.397 104.038 169.901 108.208C173.406 112.378 175.91 117.295 177.221 122.582C178.531 127.869 178.615 133.386 177.464 138.71C176.314 144.034 173.96 149.025 170.583 153.299C168.45 155.998 165.945 158.366 163.151 160.337C160.443 162.247 159.141 165.791 160.571 168.78L163.492 174.886Z" fill="#FE836F"/>
<circle cx="95.619" cy="71.0169" r="13.6151" transform="rotate(15 95.619 71.0169)" fill="#FFECE8"/>
<path fill-rule="evenodd" clip-rule="evenodd" d="M106.657 62.6242C107.667 63.9924 107.3 65.9072 105.856 66.8055C103.463 68.2945 100.588 69.0559 97.5628 68.8084C96.39 68.7125 95.2642 68.4706 94.2016 68.1022C94.1558 68.2684 94.1066 68.4344 94.0542 68.6002C92.8187 72.5035 89.9877 75.4592 86.5077 76.9756C84.9488 77.655 83.164 76.8702 82.6103 75.2623C81.6924 72.597 81.5914 69.6245 82.5073 66.7306C83.5404 63.4667 85.6891 60.8654 88.4 59.2141C88.4379 59.1881 88.4765 59.1628 88.5159 59.1382C90.9093 57.6492 93.7842 56.8879 96.8093 57.1353C100.89 57.4691 104.403 59.5698 106.657 62.6242Z" fill="#FE836F"/>
<circle cx="106.014" cy="71.4354" r="1.36151" transform="rotate(-9.06992 106.014 71.4354)" fill="#FE836F"/>
<circle cx="90.0137" cy="79.16" r="1.36151" transform="rotate(-9.06992 90.0137 79.16)" fill="#FE836F"/>
<circle cx="85.0202" cy="97.4245" r="6.80754" transform="rotate(15 85.0202 97.4245)" fill="#FE836F"/>
<circle cx="86.8273" cy="107.776" r="6.80754" transform="rotate(15 86.8273 107.776)" fill="#FE836F"/>
<path d="M98.0019 72.2663C97.8829 72.3577 97.8595 72.5297 97.9658 72.6355C98.2329 72.9011 98.5696 73.0889 98.9397 73.1757C99.3984 73.2832 99.8802 73.2288 100.303 73.0218C100.727 72.8147 101.065 72.4677 101.262 72.0396C101.42 71.6941 101.479 71.313 101.433 70.9392C101.415 70.7903 101.264 70.7032 101.119 70.741C100.974 70.7788 100.89 70.9275 100.901 71.0771C100.919 71.3282 100.874 71.5814 100.768 71.8129C100.624 72.1272 100.375 72.3819 100.065 72.5338C99.754 72.6858 99.4004 72.7257 99.0637 72.6468C98.8157 72.5887 98.5882 72.4687 98.4013 72.3C98.2899 72.1995 98.1208 72.1749 98.0019 72.2663Z" fill="#FE836F"/>
<path d="M98.2133 79.471C98.0944 79.5624 98.0709 79.7345 98.1773 79.8402C98.4443 80.1058 98.781 80.2936 99.1511 80.3804C99.6098 80.4879 100.092 80.4335 100.515 80.2265C100.938 80.0194 101.277 79.6724 101.473 79.2443C101.632 78.8989 101.69 78.5177 101.644 78.1439C101.626 77.995 101.476 77.9079 101.331 77.9457C101.186 77.9836 101.101 78.1322 101.112 78.2818C101.131 78.5329 101.086 78.7862 100.98 79.0176C100.835 79.3319 100.587 79.5866 100.276 79.7386C99.9654 79.8905 99.6118 79.9304 99.2751 79.8515C99.0271 79.7934 98.7996 79.6734 98.6127 79.5047C98.5014 79.4042 98.3322 79.3796 98.2133 79.471Z" fill="#FE836F"/>
<path d="M92.0463 75.3811C91.9274 75.4725 91.9039 75.6446 92.0103 75.7504C92.2773 76.0159 92.614 76.2038 92.9841 76.2905C93.4428 76.3981 93.9246 76.3437 94.3478 76.1367C94.771 75.9296 95.1096 75.5826 95.3062 75.1545C95.4648 74.809 95.5231 74.4279 95.4774 74.0541C95.4592 73.9052 95.3089 73.8181 95.1637 73.8559C95.0186 73.8937 94.9342 74.0424 94.9452 74.192C94.9638 74.443 94.9188 74.6963 94.8125 74.9278C94.6682 75.242 94.4197 75.4967 94.1091 75.6487C93.7984 75.8007 93.4448 75.8406 93.1081 75.7617C92.8601 75.7035 92.6326 75.5836 92.4457 75.4149C92.3344 75.3143 92.1652 75.2897 92.0463 75.3811Z" fill="#FE836F"/>
</svg>
