<svg width="219" height="196" viewBox="0 0 219 196" fill="none" xmlns="http://www.w3.org/2000/svg">
<circle cx="69.8805" cy="31.9482" r="9.07738" transform="rotate(32.4889 69.8805 31.9482)" fill="#FFD3A9"/>
<circle cx="194.733" cy="121.849" r="9.07738" transform="rotate(32.4889 194.733 121.849)" fill="#FFD3A9"/>
<circle cx="78.6695" cy="100.045" r="6.9826" transform="rotate(32.4889 78.6695 100.045)" fill="#E6E7EF"/>
<path d="M69.0738 27.9164C68.5388 24.6462 65.4408 22.3971 62.2468 23.2795C50.5185 26.5197 40.1092 33.5214 32.6736 43.2904C24.0208 54.6585 20.0525 68.9098 21.5846 83.114C23.1168 97.3181 30.033 110.395 40.911 119.657C50.2589 127.615 61.9218 132.236 74.0713 132.901C77.3801 133.082 79.9272 130.224 79.7525 126.915L79.3701 119.673C79.1953 116.364 76.356 113.874 73.0628 113.507C65.8485 112.701 58.9869 109.762 53.3911 104.998C46.262 98.9286 41.7293 90.3582 40.7252 81.0493C39.7211 71.7405 42.3218 62.4006 47.9925 54.9504C52.4436 49.1025 58.5207 44.7677 65.3973 42.4426C68.5364 41.3812 70.7794 38.3432 70.2445 35.0729L69.0738 27.9164Z" fill="#E6E7EF"/>
<circle cx="91.5528" cy="86.3122" r="13.9652" transform="rotate(32.4889 91.5528 86.3122)" fill="#FFD3A9"/>
<path fill-rule="evenodd" clip-rule="evenodd" d="M104.963 81.5729C105.506 83.1841 104.582 84.8976 102.937 85.3292C100.117 86.0691 97.0425 85.9355 94.1346 84.7509C93.0162 84.2953 91.9888 83.7112 91.0625 83.0227C90.9663 83.1714 90.8669 83.3189 90.7643 83.4652C88.3374 86.9244 84.6258 88.9469 80.7274 89.3402C79.0355 89.5109 77.5712 88.2279 77.5174 86.5282C77.4252 83.6143 78.2412 80.647 80.0444 78.0767C82.0597 75.2041 84.9609 73.3223 88.1193 72.5414C88.1441 72.5342 88.169 72.5274 88.1941 72.5208C91.0143 71.7808 94.089 71.9144 96.997 73.0991C100.91 74.6933 103.71 77.8603 104.963 81.5729Z" fill="#E6E7EF"/>
<circle cx="101.593" cy="89.926" r="1.39652" transform="rotate(8.41898 101.593 89.926)" fill="#E6E7EF"/>
<circle cx="83.5588" cy="92.5508" r="1.39652" transform="rotate(8.41898 83.5588 92.5508)" fill="#E6E7EF"/>
<path d="M93.4987 88.2692C93.3542 88.322 93.2782 88.4831 93.3496 88.6193C93.529 88.9614 93.8005 89.249 94.1359 89.448C94.5515 89.6946 95.0395 89.7899 95.5174 89.7178C95.9952 89.6457 96.4334 89.4106 96.7577 89.0523C97.0194 88.7633 97.194 88.4084 97.2644 88.0286C97.2925 87.8773 97.1723 87.7458 97.0187 87.738C96.865 87.7303 96.7366 87.8497 96.7013 87.9994C96.642 88.2508 96.52 88.4847 96.3447 88.6784C96.1066 88.9413 95.785 89.1139 95.4342 89.1668C95.0835 89.2198 94.7252 89.1498 94.4202 88.9688C94.1955 88.8355 94.0099 88.648 93.8791 88.4253C93.8011 88.2927 93.6432 88.2165 93.4987 88.2692Z" fill="#E6E7EF"/>
<path d="M91.485 95.3826C91.3405 95.4354 91.2645 95.5965 91.336 95.7327C91.5154 96.0749 91.7869 96.3624 92.1222 96.5614C92.5378 96.808 93.0259 96.9033 93.5037 96.8312C93.9815 96.7591 94.4197 96.524 94.7441 96.1657C95.0057 95.8767 95.1803 95.5218 95.2508 95.142C95.2788 94.9907 95.1587 94.8592 95.005 94.8514C94.8513 94.8437 94.723 94.9631 94.6876 95.1128C94.6284 95.3642 94.5063 95.5981 94.331 95.7918C94.0929 96.0547 93.7713 96.2273 93.4206 96.2802C93.0698 96.3332 92.7116 96.2632 92.4065 96.0822C92.1819 95.9489 91.9962 95.7614 91.8654 95.5387C91.7875 95.4061 91.6296 95.3299 91.485 95.3826Z" fill="#E6E7EF"/>
<path d="M86.7116 89.4803C86.5671 89.533 86.4911 89.6941 86.5625 89.8304C86.7419 90.1725 87.0134 90.4601 87.3488 90.659C87.7644 90.9056 88.2524 91.0009 88.7303 90.9288C89.2081 90.8567 89.6463 90.6216 89.9706 90.2634C90.2323 89.9743 90.4068 89.6194 90.4773 89.2396C90.5054 89.0883 90.3852 88.9568 90.2316 88.9491C90.0779 88.9413 89.9495 89.0607 89.9142 89.2105C89.8549 89.4618 89.7329 89.6958 89.5576 89.8894C89.3195 90.1524 88.9979 90.325 88.6471 90.3779C88.2964 90.4308 87.9381 90.3609 87.6331 90.1799C87.4084 90.0465 87.2228 89.8591 87.092 89.6364C87.014 89.5037 86.8561 89.4275 86.7116 89.4803Z" fill="#E6E7EF"/>
<rect x="68.3916" y="113.732" width="126.813" height="19.5513" rx="6" transform="rotate(-0.81214 68.3916 113.732)" fill="#E6E7EF"/>
</svg>
