<svg width="140" height="140" viewBox="0 0 140 140" fill="none" xmlns="http://www.w3.org/2000/svg">
<circle cx="39.1308" cy="26.2262" r="10.4789" transform="rotate(4.80238 39.1308 26.2262)" fill="#FFECE8"/>
<circle cx="84.6889" cy="18.3246" r="10.4789" transform="rotate(4.80238 84.6889 18.3246)" fill="#FFECE8"/>
<path d="M34.6819 22.9351C32.6887 20.2879 28.9047 19.7381 26.4541 21.9686C17.3051 30.2957 10.711 41.1122 7.523 53.1527C3.82121 67.1337 4.92674 81.9532 10.662 95.2301C16.3972 108.507 26.4292 119.471 39.146 126.359C51.8628 133.248 66.5261 135.662 80.78 133.213C95.0339 130.764 108.051 123.594 117.739 112.856C127.427 102.118 133.225 88.435 134.2 74.0052C135.175 59.5753 131.271 45.2367 123.115 33.293C116.091 23.007 106.265 15.0116 94.861 10.2156C91.8065 8.93097 88.4229 10.7122 87.4276 13.8729L84.3567 23.6249C83.3614 26.7856 85.1427 30.117 88.1307 31.5496C94.8017 34.7478 100.55 39.6585 104.761 45.8257C110.107 53.6532 112.665 63.0502 112.026 72.507C111.387 81.9638 107.588 90.9313 101.238 97.9686C94.8891 105.006 86.3583 109.705 77.0168 111.31C67.6753 112.914 58.0655 111.333 49.7314 106.818C41.3972 102.303 34.8226 95.1183 31.064 86.4171C27.3053 77.7158 26.5808 68.0037 29.0068 58.8411C30.9182 51.6219 34.698 45.0741 39.919 39.8328C42.2576 37.4851 42.8248 33.7502 40.8316 31.1029L34.6819 22.9351Z" fill="#FFD3A9"/>
<circle cx="73.7323" cy="86.1615" r="16.1214" transform="rotate(4.80238 73.7323 86.1615)" fill="#FFECE8"/>
<path fill-rule="evenodd" clip-rule="evenodd" d="M80.3459 71.1732C84.9662 73.1761 88.1734 77.0829 89.4473 81.5773C89.9111 83.2134 88.9563 84.8934 87.3135 85.3329C83.9234 86.24 80.2145 86.0516 76.7446 84.5474C75.6622 84.0782 74.6573 83.5044 73.7367 82.8432C73.4659 82.6487 73.0858 82.7086 72.8884 82.9772C69.9054 87.0345 65.3816 89.2896 60.7163 89.529C59.018 89.6161 57.5933 88.3107 57.5312 86.6113C57.4031 83.1043 58.4139 79.5309 60.6541 76.4838C63.0406 73.2377 66.4134 71.1452 70.0559 70.3156C73.3699 69.4919 76.9709 69.7101 80.3459 71.1732Z" fill="#FFD3A9"/>
<circle cx="58.6794" cy="72.7632" r="8.06072" transform="rotate(4.80238 58.6794 72.7632)" fill="#FFD3A9"/>
<circle cx="85.5785" cy="89.5835" r="1.61214" transform="rotate(4.80238 85.5785 89.5835)" fill="#FFD3A9"/>
<circle cx="64.9911" cy="93.9207" r="1.61214" transform="rotate(4.80238 64.9911 93.9207)" fill="#FFD3A9"/>
<path d="M76.1313 88.2641C75.9686 88.3354 75.8928 88.5265 75.9851 88.6783C76.2167 89.0594 76.5504 89.3709 76.9512 89.5757C77.448 89.8295 78.0172 89.9038 78.5625 89.7859C79.1078 89.6681 79.5955 89.3653 79.9431 88.9289C80.2235 88.5769 80.3988 88.1553 80.4523 87.7126C80.4736 87.5363 80.3256 87.3935 80.148 87.3958C79.9704 87.398 79.8312 87.5449 79.8014 87.72C79.7514 88.0139 79.6278 88.2923 79.4399 88.5282C79.1848 88.8485 78.8268 89.0707 78.4266 89.1573C78.0264 89.2438 77.6085 89.1893 77.2439 89.0029C76.9754 88.8657 76.7478 88.6632 76.5809 88.4162C76.4814 88.2691 76.294 88.1927 76.1313 88.2641Z" fill="#FFD3A9"/>
<path d="M74.3296 96.6061C74.1669 96.6774 74.0911 96.8686 74.1833 97.0203C74.4149 97.4014 74.7487 97.713 75.1495 97.9178C75.6462 98.1716 76.2155 98.2459 76.7607 98.128C77.306 98.0101 77.7938 97.7073 78.1413 97.271C78.4217 96.9189 78.597 96.4973 78.6505 96.0546C78.6718 95.8783 78.5238 95.7355 78.3462 95.7378C78.1686 95.74 78.0294 95.887 77.9996 96.0621C77.9496 96.356 77.8261 96.6344 77.6382 96.8702C77.3831 97.1905 77.0251 97.4128 76.6248 97.4993C76.2246 97.5858 75.8068 97.5313 75.4421 97.345C75.1736 97.2078 74.9461 97.0053 74.7791 96.7583C74.6797 96.6111 74.4922 96.5348 74.3296 96.6061Z" fill="#FFD3A9"/>
<path d="M68.3999 90.1537C68.2372 90.225 68.1614 90.4162 68.2536 90.5679C68.4852 90.949 68.819 91.2606 69.2198 91.4654C69.7165 91.7192 70.2858 91.7935 70.8311 91.6756C71.3763 91.5577 71.8641 91.255 72.2116 90.8186C72.4921 90.4665 72.6673 90.045 72.7208 89.6022C72.7422 89.4259 72.5941 89.2831 72.4165 89.2854C72.2389 89.2877 72.0998 89.4346 72.07 89.6097C72.02 89.9036 71.8964 90.182 71.7085 90.4179C71.4534 90.7381 71.0954 90.9604 70.6952 91.0469C70.2949 91.1334 69.8771 91.0789 69.5125 90.8926C69.2439 90.7554 69.0164 90.5529 68.8495 90.3059C68.75 90.1587 68.5626 90.0824 68.3999 90.1537Z" fill="#FFD3A9"/>
</svg>
