<svg width="438" height="438" viewBox="0 0 438 438" fill="none" xmlns="http://www.w3.org/2000/svg">
<circle cx="196.535" cy="88.7982" r="26" transform="rotate(30.3301 196.535 88.7982)" fill="#FFECE8"/>
<circle cx="306.987" cy="119.82" r="26" transform="rotate(30.3301 306.987 119.82)" fill="#FFECE8"/>
<path d="M188.329 67.9623C187.671 64.7145 184.502 62.6037 181.281 63.3827C148.449 71.3238 118.916 89.4704 96.9756 115.288C73.7383 142.633 60.3677 176.995 59.0121 212.854C57.6566 248.713 68.3947 283.986 89.5013 313.007C110.608 342.028 140.857 363.111 175.39 372.869C209.922 382.627 246.732 380.493 279.905 366.81C313.079 353.128 340.69 328.691 358.302 297.426C375.914 266.16 382.504 229.882 377.014 194.42C371.831 160.938 356.163 130.019 332.343 106.069C330.006 103.72 326.2 103.859 323.94 106.282L294.513 137.831C292.253 140.254 292.399 144.039 294.689 146.434C309.49 161.914 319.231 181.597 322.522 202.856C326.12 226.097 321.8 249.872 310.258 270.362C298.716 290.852 280.621 306.867 258.88 315.834C237.139 324.801 213.015 326.2 190.384 319.805C167.753 313.41 147.928 299.593 134.096 280.574C120.264 261.554 113.226 238.437 114.115 214.937C115.003 191.436 123.766 168.916 138.994 150.996C152.925 134.603 171.527 122.929 192.24 117.485C195.445 116.642 197.551 113.493 196.893 110.246L188.329 67.9623Z" fill="#FE836F"/>
<circle cx="209.919" cy="259.988" r="40" transform="rotate(30.3301 209.919 259.988)" fill="#FFECE8"/>
<path fill-rule="evenodd" clip-rule="evenodd" d="M240.753 233.501C249.947 244.064 252.61 258.084 249.082 270.628C248.622 272.265 247.076 273.342 245.381 273.207C235.315 272.404 225.543 267.813 218.39 259.595C216.468 257.387 214.832 255.028 213.477 252.563C213.079 251.838 212.164 251.566 211.435 251.956C199.088 258.562 184.827 258.031 173.386 251.794C171.893 250.98 171.188 249.233 171.698 247.611C174.725 237.978 181.38 229.476 190.987 224.336C199.802 219.62 209.592 218.541 218.635 220.579C226.934 222.279 234.762 226.618 240.753 233.501Z" fill="#FE836F"/>
<circle cx="190.544" cy="213.895" r="20" transform="rotate(30.3301 190.544 213.895)" fill="#FE836F"/>
<circle cx="232.783" cy="280.316" r="4" transform="rotate(30.3301 232.783 280.316)" fill="#FE836F"/>
<circle cx="182.052" cy="268.014" r="4" transform="rotate(30.3301 182.052 268.014)" fill="#FE836F"/>
<path d="M213.043 267.261C212.603 267.246 212.229 267.593 212.273 268.032C212.384 269.133 212.798 270.187 213.477 271.074C214.317 272.174 215.512 272.948 216.859 273.268C218.206 273.587 219.622 273.43 220.867 272.825C221.871 272.337 222.714 271.58 223.307 270.646C223.544 270.274 223.365 269.796 222.965 269.611C222.565 269.427 222.096 269.607 221.842 269.967C221.416 270.571 220.842 271.063 220.169 271.39C219.255 271.834 218.216 271.949 217.227 271.715C216.239 271.48 215.361 270.912 214.744 270.105C214.29 269.51 213.997 268.814 213.887 268.082C213.822 267.646 213.484 267.275 213.043 267.261Z" fill="#FE836F"/>
<path d="M200.089 284.012C199.649 283.998 199.275 284.344 199.319 284.783C199.43 285.884 199.844 286.938 200.522 287.825C201.363 288.925 202.558 289.7 203.905 290.019C205.252 290.338 206.668 290.182 207.913 289.576C208.917 289.088 209.76 288.331 210.353 287.397C210.59 287.025 210.411 286.547 210.011 286.363C209.611 286.178 209.142 286.358 208.888 286.718C208.462 287.323 207.888 287.814 207.215 288.141C206.301 288.585 205.262 288.7 204.273 288.466C203.285 288.232 202.407 287.663 201.79 286.856C201.336 286.261 201.043 285.565 200.933 284.833C200.868 284.397 200.53 284.026 200.089 284.012Z" fill="#FE836F"/>
<path d="M193.713 263.225C193.273 263.211 192.899 263.558 192.943 263.997C193.054 265.097 193.468 266.152 194.146 267.039C194.987 268.138 196.182 268.913 197.529 269.232C198.876 269.552 200.292 269.395 201.537 268.79C202.541 268.301 203.384 267.545 203.977 266.611C204.214 266.239 204.035 265.761 203.635 265.576C203.235 265.391 202.766 265.571 202.512 265.932C202.086 266.536 201.512 267.027 200.839 267.355C199.925 267.799 198.886 267.914 197.897 267.68C196.909 267.445 196.031 266.876 195.414 266.069C194.96 265.475 194.667 264.778 194.557 264.047C194.492 263.611 194.154 263.24 193.713 263.225Z" fill="#FE836F"/>
</svg>
